<svg version="1.1" id="Layer_1" xmlns="http://www.w3.org/2000/svg" xmlns:xlink="http://www.w3.org/1999/xlink" x="0px" y="0px"
	 width="100%" viewBox="0 0 512 512" enable-background="new 0 0 512 512" xml:space="preserve">
<path fill="#000000" opacity="1.000000" stroke="none" 
	d="
M1.000000,183.000000 
	C1.000000,122.000000 1.000000,61.500000 1.000000,1.000000 
	C171.666672,1.000000 342.333344,1.000000 513.000000,1.000000 
	C513.000000,171.666672 513.000000,342.333344 513.000000,513.000000 
	C342.333344,513.000000 171.666672,513.000000 1.000000,513.000000 
	C1.000000,403.166656 1.000000,293.333344 1.000000,183.000000 
M49.955147,327.967651 
	C73.520996,327.967651 97.086845,327.967651 120.979675,327.967651 
	C120.979675,323.316956 121.115082,319.340149 120.949982,315.375916 
	C120.655128,308.296326 115.579842,303.100922 108.453697,303.066437 
	C89.647217,302.975311 70.839508,303.135620 51.100163,303.048950 
	C43.611248,303.036560 36.120399,302.914215 28.634007,303.045593 
	C22.322916,303.156372 16.999790,307.341827 16.280531,313.305145 
	C15.714725,317.996185 16.166914,322.809998 16.166914,327.861053 
	C27.462965,327.861053 38.244846,327.861053 49.955147,327.967651 
M425.091553,473.024139 
	C414.512817,473.024139 403.934052,473.024139 393.000366,473.024139 
	C393.000366,475.557343 392.992859,477.363831 393.002167,479.170258 
	C393.015015,481.666229 392.859528,484.179474 393.096222,486.654694 
	C393.691589,492.879944 398.714081,497.768860 405.081635,497.916077 
	C413.060028,498.100494 421.048218,497.859558 429.956512,497.937805 
	C448.100525,497.957794 466.244598,498.017456 484.388489,497.977997 
	C491.484680,497.962555 496.916016,493.996643 497.704163,487.662262 
	C498.287384,482.974884 497.818787,478.156616 497.818787,473.138916 
	C473.566711,473.138916 449.796692,473.138916 425.091553,473.024139 
M426.955078,327.967682 
	C450.520935,327.967682 474.086823,327.967682 497.979675,327.967682 
	C497.979675,323.316956 498.115143,319.340149 497.949982,315.375916 
	C497.654938,308.296051 492.579834,303.100922 485.453705,303.066437 
	C466.647186,302.975372 447.839478,303.135651 428.100098,303.048920 
	C420.611206,303.036560 413.120361,302.914246 405.633972,303.045624 
	C399.322845,303.156372 393.999756,307.341827 393.280548,313.305115 
	C392.714783,317.996155 393.166931,322.809967 393.166931,327.861053 
	C404.462952,327.861053 415.244812,327.861053 426.955078,327.967682 
M48.091530,473.024139 
	C37.512768,473.024139 26.934008,473.024139 16.060640,473.024139 
	C16.060640,478.052551 15.802739,482.374603 16.121803,486.653625 
	C16.586548,492.886353 21.714138,497.768890 28.081686,497.916077 
	C36.060081,498.100464 44.048306,497.859558 52.956585,497.937775 
	C71.100586,497.957764 89.244667,498.017426 107.388535,497.977997 
	C114.484627,497.962585 119.916023,493.996552 120.704163,487.662201 
	C121.287376,482.974792 120.818810,478.156555 120.818810,473.138916 
	C96.566704,473.138916 72.796700,473.138916 48.091530,473.024139 
M49.954960,392.966919 
	C73.539299,392.966919 97.123642,392.966919 120.695892,392.966919 
	C120.695892,375.970947 120.695892,359.716156 120.695892,343.140442 
	C96.605385,343.140442 72.815971,343.140442 48.091446,343.025513 
	C37.502018,343.025513 26.912590,343.025513 16.328184,343.025513 
	C16.328184,360.035828 16.328184,376.283173 16.328184,392.859558 
	C27.442453,392.859558 38.234531,392.859558 49.954960,392.966919 
M48.091446,408.025513 
	C37.502018,408.025513 26.912590,408.025513 16.328184,408.025513 
	C16.328184,425.035828 16.328184,441.283173 16.328184,457.859558 
	C27.442453,457.859558 38.234531,457.859558 49.954960,457.966919 
	C73.539299,457.966919 97.123642,457.966919 120.695892,457.966919 
	C120.695892,440.970947 120.695892,424.716156 120.695892,408.140442 
	C96.605385,408.140442 72.815971,408.140442 48.091446,408.025513 
M426.954742,457.967285 
	C450.526123,457.967285 474.097534,457.967285 497.729004,457.967285 
	C497.729004,441.019409 497.729004,424.773743 497.729004,408.000275 
	C495.680969,408.000275 493.896240,408.000916 492.111542,408.000153 
	C485.117462,407.997101 478.120148,408.121918 471.130432,407.945190 
	C466.477478,407.827576 463.647064,404.672272 463.749512,400.279144 
	C463.846497,396.119934 466.615295,393.235291 471.066315,393.046021 
	C475.222076,392.869263 479.391022,393.001465 483.554169,393.000122 
	C488.303833,392.998596 493.053497,392.999756 497.676880,392.999756 
	C497.676880,375.913696 497.676880,359.667175 497.676880,343.140137 
	C473.579254,343.140137 449.802795,343.140137 425.091187,343.025452 
	C414.501831,343.025452 403.912476,343.025452 393.328156,343.025452 
	C393.328156,360.035767 393.328156,376.282959 393.328156,392.859894 
	C404.442078,392.859894 415.234222,392.859894 426.954285,392.967255 
	C431.936829,392.978546 436.920319,392.932861 441.901672,393.016541 
	C447.294098,393.107117 450.364471,395.997650 450.248596,400.713593 
	C450.138153,405.206909 447.155731,407.879150 441.963989,407.985016 
	C436.652588,408.093323 431.338959,408.092926 425.091187,408.025452 
	C414.501831,408.025452 403.912476,408.025452 393.328156,408.025452 
	C393.328156,425.035767 393.328156,441.282959 393.328156,457.859894 
	C404.442078,457.859894 415.234222,457.859894 426.954742,457.967285 
M146.934494,150.974609 
	C152.598404,150.983383 158.273727,151.220901 163.923172,150.939285 
	C170.094574,150.631653 174.941986,151.883957 175.789093,158.739746 
	C180.222992,158.739746 184.164688,158.739746 187.995804,158.739746 
	C190.504837,151.930847 191.857651,151.003220 199.134796,151.002792 
	C255.776108,150.999451 312.417450,151.021179 369.058716,150.962112 
	C373.536591,150.957443 378.050903,150.670914 382.485535,150.059845 
	C415.796143,145.469833 441.211182,114.396065 439.359741,80.666061 
	C437.403595,45.028137 409.079926,16.309771 374.393768,16.143492 
	C298.762787,15.780934 223.128906,16.021004 147.496216,16.021795 
	C147.000336,16.021801 146.504456,16.119946 145.093307,16.009304 
	C143.926758,16.006050 142.760101,15.989984 141.593689,16.001400 
	C103.750000,16.371824 73.209961,47.902988 74.559090,85.208725 
	C75.954025,123.780891 107.718491,152.953201 146.934494,150.974609 
M167.082718,206.013184 
	C153.249908,206.008667 139.416916,205.960571 125.584358,206.016495 
	C117.668900,206.048477 113.078354,209.943756 111.899284,217.651627 
	C109.910980,230.649658 108.010399,243.661346 106.129204,256.675446 
	C104.639748,266.979431 103.234589,277.295593 101.736862,288.000458 
	C103.082794,288.000458 103.890633,287.990662 104.698166,288.001862 
	C125.712624,288.293457 135.998611,298.797729 135.998947,319.967499 
	C135.999649,364.132568 135.999161,408.297668 135.999161,452.462738 
	C135.999161,454.229645 135.999176,455.996552 135.999176,457.704590 
	C216.973129,457.704590 297.373688,457.704590 377.828186,457.704590 
	C377.828186,438.602173 377.828186,419.795715 377.981903,400.064545 
	C377.989288,371.927521 377.926178,343.790192 378.034027,315.653564 
	C378.087585,301.678864 387.899384,290.313232 401.588501,288.314880 
	C404.975037,287.820526 408.495148,288.241180 412.371521,288.241180 
	C408.980316,264.820465 405.791840,242.122925 402.368866,219.460800 
	C400.782349,208.957047 397.001312,206.000839 386.268372,206.000427 
	C315.176331,205.997757 244.084320,205.997925 172.992294,206.006088 
	C171.331573,206.006287 169.670853,206.111099 167.082718,206.013184 
M269.545044,175.556015 
	C269.545044,172.446930 269.545044,169.337845 269.545044,166.284576 
	C260.908691,166.284576 252.857681,166.284576 244.749893,166.284576 
	C244.749893,174.650681 244.749893,182.710510 244.749893,190.711731 
	C253.098450,190.711731 261.147980,190.711731 269.544952,190.711731 
	C269.544952,185.787125 269.544952,181.160995 269.545044,175.556015 
z"/>
<path fill="#E8ECF4" opacity="1.000000" stroke="none" 
	d="
M168.010132,206.167114 
	C169.670853,206.111099 171.331573,206.006287 172.992294,206.006088 
	C244.084320,205.997925 315.176331,205.997757 386.268372,206.000427 
	C397.001312,206.000839 400.782349,208.957047 402.368866,219.460800 
	C405.791840,242.122925 408.980316,264.820465 412.371521,288.241180 
	C408.495148,288.241180 404.975037,287.820526 401.588501,288.314880 
	C387.899384,290.313232 378.087585,301.678864 378.034027,315.653564 
	C377.926178,343.790192 377.989288,371.927521 377.447327,400.528931 
	C361.003021,400.994324 345.091309,401.128815 329.185120,400.891205 
	C325.727600,400.839600 322.290039,399.454742 318.885834,398.323730 
	C320.745300,389.906738 323.667664,381.921448 324.194061,373.781250 
	C326.955841,331.072205 286.740112,296.396149 244.706863,304.663879 
	C223.625778,308.810455 208.246735,320.689240 197.248383,338.521362 
	C184.760239,322.550690 175.801163,305.185120 170.465820,286.093018 
	C173.087845,286.012787 175.253693,286.017548 177.419388,286.001343 
	C186.926453,285.930328 191.826981,281.067932 191.887177,271.526550 
	C191.941833,262.863678 191.938492,254.199951 191.888153,245.537033 
	C191.832443,235.950150 186.966080,231.080368 177.491623,230.994980 
	C172.664215,230.951477 167.837006,230.886627 163.006439,230.398132 
	C163.665619,221.820480 163.909088,213.587997 168.010132,206.167114 
M225.189072,243.999786 
	C225.187515,253.330688 225.103088,262.662537 225.208206,271.992218 
	C225.308990,280.937469 230.319153,285.939636 239.158096,285.988281 
	C250.987991,286.053375 262.818695,286.045471 274.648712,285.991150 
	C283.601379,285.950043 288.648804,281.073639 288.781555,272.180481 
	C288.915802,263.184814 288.885620,254.184814 288.791412,245.188156 
	C288.694366,235.915268 283.766174,231.044708 274.528259,231.006897 
	C262.864838,230.959167 251.200943,230.965485 239.537445,231.005203 
	C230.984314,231.034332 226.985458,234.462708 225.189072,243.999786 
M322.099884,262.486511 
	C322.107361,266.149933 321.964325,269.821167 322.154449,273.475067 
	C322.521179,280.523071 327.236328,285.753113 334.019836,285.890320 
	C347.002930,286.152954 359.999969,286.177887 372.981659,285.881744 
	C380.348663,285.713715 385.649567,279.287964 384.744934,271.983765 
	C383.518799,262.084015 382.086060,252.201782 380.413452,242.367889 
	C379.087830,234.573776 374.541901,231.047058 366.494293,231.008743 
	C356.336609,230.960403 346.178192,230.948593 336.020660,231.011810 
	C327.170685,231.066864 322.227631,236.062668 322.114502,245.005798 
	C322.045013,250.500183 322.100525,255.996185 322.099884,262.486511 
z"/>
<path fill="#DBE0EA" opacity="1.000000" stroke="none" 
	d="
M167.546417,206.090149 
	C163.909088,213.587997 163.665619,221.820480 162.542633,230.473450 
	C157.766495,230.986877 153.450943,230.990662 149.135376,230.996735 
	C138.651932,231.011490 134.407257,234.785858 133.050919,245.095337 
	C131.969788,253.313126 130.825577,261.524231 129.574020,269.717590 
	C128.060318,279.627167 133.197754,285.895691 143.132385,285.995697 
	C152.091125,286.085876 161.050507,286.113281 170.009598,286.168335 
	C175.801163,305.185120 184.760239,322.550690 197.155182,338.837891 
	C196.727356,340.583374 196.228958,341.631012 195.780273,342.699524 
	C184.542282,369.461456 187.986893,394.206390 206.979263,416.137939 
	C224.558914,436.438110 253.495392,443.646545 278.929596,434.835449 
	C297.322510,428.463623 310.175812,415.854553 318.843262,398.683960 
	C322.290039,399.454742 325.727600,400.839600 329.185120,400.891205 
	C345.091309,401.128815 361.003021,400.994324 377.370483,400.991302 
	C377.828186,419.795715 377.828186,438.602173 377.828186,457.704590 
	C297.373688,457.704590 216.973129,457.704590 135.999176,457.704590 
	C135.999176,455.996552 135.999161,454.229645 135.999161,452.462738 
	C135.999161,408.297668 135.999649,364.132568 135.998947,319.967499 
	C135.998611,298.797729 125.712624,288.293457 104.698166,288.001862 
	C103.890633,287.990662 103.082794,288.000458 101.736862,288.000458 
	C103.234589,277.295593 104.639748,266.979431 106.129204,256.675446 
	C108.010399,243.661346 109.910980,230.649658 111.899284,217.651627 
	C113.078354,209.943756 117.668900,206.048477 125.584358,206.016495 
	C139.416916,205.960571 153.249908,206.008667 167.546417,206.090149 
z"/>
<path fill="#F1F5FB" opacity="1.000000" stroke="none" 
	d="
M146.008575,16.172264 
	C146.504456,16.119946 147.000336,16.021801 147.496216,16.021795 
	C223.128906,16.021004 298.762787,15.780934 374.393768,16.143492 
	C409.079926,16.309771 437.403595,45.028137 439.359741,80.666061 
	C441.211182,114.396065 415.796143,145.469833 382.485535,150.059845 
	C378.050903,150.670914 373.536591,150.957443 369.058716,150.962112 
	C312.417450,151.021179 255.776108,150.999451 199.134796,151.002792 
	C191.857651,151.003220 190.504837,151.930847 187.995804,158.739746 
	C184.164688,158.739746 180.222992,158.739746 175.789093,158.739746 
	C174.941986,151.883957 170.094574,150.631653 163.923172,150.939285 
	C158.273727,151.220901 152.598404,150.983383 146.419586,150.563141 
	C145.268875,149.438629 144.766525,148.482391 143.977142,148.049149 
	C132.833649,141.933319 124.516945,132.956177 117.909660,122.286461 
	C117.183304,121.113503 117.243217,119.453629 117.276001,118.112183 
	C125.666939,123.847755 134.647171,126.049911 144.428940,126.040405 
	C219.427963,125.967545 294.427094,126.000877 369.426178,125.997284 
	C371.092438,125.997200 372.761261,126.001259 374.424622,125.918259 
	C400.454681,124.619347 419.461761,99.238861 413.331970,73.979599 
	C408.468109,53.936687 391.895233,41.027267 370.703583,41.015652 
	C296.204468,40.974808 221.705170,41.085621 147.206512,40.905491 
	C136.222244,40.878937 126.105606,42.877277 116.687248,48.755589 
	C120.137733,38.656239 127.337410,31.549505 135.140594,24.946600 
	C138.693893,21.939857 142.381744,19.092121 146.008575,16.172264 
z"/>
<path fill="#636978" opacity="1.000000" stroke="none" 
	d="
M426.026306,408.140137 
	C431.338959,408.092926 436.652588,408.093323 441.963989,407.985016 
	C447.155731,407.879150 450.138153,405.206909 450.248596,400.713593 
	C450.364471,395.997650 447.294098,393.107117 441.901672,393.016541 
	C436.920319,392.932861 431.936829,392.978546 426.478210,392.455566 
	C426.010223,375.675964 426.018280,359.408051 426.026306,343.140137 
	C449.802795,343.140137 473.579254,343.140137 497.676880,343.140137 
	C497.676880,359.667175 497.676880,375.913696 497.676880,392.999756 
	C493.053497,392.999756 488.303833,392.998596 483.554169,393.000122 
	C479.391022,393.001465 475.222076,392.869263 471.066315,393.046021 
	C466.615295,393.235291 463.846497,396.119934 463.749512,400.279144 
	C463.647064,404.672272 466.477478,407.827576 471.130432,407.945190 
	C478.120148,408.121918 485.117462,407.997101 492.111542,408.000153 
	C493.896240,408.000916 495.680969,408.000275 497.729004,408.000275 
	C497.729004,424.773743 497.729004,441.019409 497.729004,457.967285 
	C474.097534,457.967285 450.526123,457.967285 426.478455,457.455566 
	C426.010193,440.675964 426.018250,424.408051 426.026306,408.140137 
z"/>
<path fill="#E7EBF3" opacity="1.000000" stroke="none" 
	d="
M116.938461,118.019592 
	C117.243217,119.453629 117.183304,121.113503 117.909660,122.286461 
	C124.516945,132.956177 132.833649,141.933319 143.977142,148.049149 
	C144.766525,148.482391 145.268875,149.438629 145.956604,150.489594 
	C107.718491,152.953201 75.954025,123.780891 74.559090,85.208725 
	C73.209961,47.902988 103.750000,16.371824 141.593689,16.001400 
	C142.760101,15.989984 143.926758,16.006050 145.550934,16.090786 
	C142.381744,19.092121 138.693893,21.939857 135.140594,24.946600 
	C127.337410,31.549505 120.137733,38.656239 116.531937,49.049568 
	C113.037857,53.437786 108.929596,56.946632 106.010414,61.260181 
	C96.635796,75.112640 94.938614,100.392136 116.938461,118.019592 
z"/>
<path fill="#636978" opacity="1.000000" stroke="none" 
	d="
M49.026566,408.140442 
	C72.815971,408.140442 96.605385,408.140442 120.695892,408.140442 
	C120.695892,424.716156 120.695892,440.970947 120.695892,457.966919 
	C97.123642,457.966919 73.539299,457.966919 49.478622,457.455261 
	C49.010376,440.675873 49.018471,424.408142 49.026566,408.140442 
z"/>
<path fill="#636978" opacity="1.000000" stroke="none" 
	d="
M49.026566,343.140442 
	C72.815971,343.140442 96.605385,343.140442 120.695892,343.140442 
	C120.695892,359.716156 120.695892,375.970947 120.695892,392.966919 
	C97.123642,392.966919 73.539299,392.966919 49.478622,392.455261 
	C49.010380,375.675873 49.018475,359.408142 49.026566,343.140442 
z"/>
<path fill="#636978" opacity="1.000000" stroke="none" 
	d="
M49.026691,473.138916 
	C72.796700,473.138916 96.566704,473.138916 120.818810,473.138916 
	C120.818810,478.156555 121.287376,482.974792 120.704163,487.662201 
	C119.916023,493.996552 114.484627,497.962585 107.388535,497.977997 
	C89.244667,498.017426 71.100586,497.957764 52.434158,497.515930 
	C50.937965,493.203644 49.571346,489.360077 49.099747,485.409668 
	C48.617966,481.374023 49.014603,477.233521 49.026691,473.138916 
z"/>
<path fill="#636978" opacity="1.000000" stroke="none" 
	d="
M429.032227,303.195862 
	C447.839478,303.135651 466.647186,302.975372 485.453705,303.066437 
	C492.579834,303.100922 497.654938,308.296051 497.949982,315.375916 
	C498.115143,319.340149 497.979675,323.316956 497.979675,327.967682 
	C474.086823,327.967682 450.520935,327.967682 426.478455,327.456604 
	C426.273438,318.934723 424.577118,310.672852 429.032227,303.195862 
z"/>
<path fill="#636978" opacity="1.000000" stroke="none" 
	d="
M426.026672,473.138916 
	C449.796692,473.138916 473.566711,473.138916 497.818787,473.138916 
	C497.818787,478.156616 498.287384,482.974884 497.704163,487.662262 
	C496.916016,493.996643 491.484680,497.962555 484.388489,497.977997 
	C466.244598,498.017456 448.100525,497.957794 429.434143,497.515930 
	C427.938019,493.203644 426.571411,489.360107 426.099792,485.409698 
	C425.618011,481.374054 426.014618,477.233521 426.026672,473.138916 
z"/>
<path fill="#636978" opacity="1.000000" stroke="none" 
	d="
M52.032291,303.195862 
	C70.839508,303.135620 89.647217,302.975311 108.453697,303.066437 
	C115.579842,303.100922 120.655128,308.296326 120.949982,315.375916 
	C121.115082,319.340149 120.979675,323.316956 120.979675,327.967651 
	C97.086845,327.967651 73.520996,327.967651 49.478477,327.456604 
	C49.272633,318.934631 47.577736,310.672913 52.032291,303.195862 
z"/>
<path fill="#555A66" opacity="1.000000" stroke="none" 
	d="
M48.559006,343.082977 
	C49.018475,359.408142 49.010380,375.675873 49.014446,392.401550 
	C38.234531,392.859558 27.442453,392.859558 16.328184,392.859558 
	C16.328184,376.283173 16.328184,360.035828 16.328184,343.025513 
	C26.912590,343.025513 37.502018,343.025513 48.559006,343.082977 
z"/>
<path fill="#555A66" opacity="1.000000" stroke="none" 
	d="
M425.558777,343.082794 
	C426.018280,359.408051 426.010223,375.675964 426.014282,392.401886 
	C415.234222,392.859894 404.442078,392.859894 393.328156,392.859894 
	C393.328156,376.282959 393.328156,360.035767 393.328156,343.025452 
	C403.912476,343.025452 414.501831,343.025452 425.558777,343.082794 
z"/>
<path fill="#555A66" opacity="1.000000" stroke="none" 
	d="
M425.558746,408.082794 
	C426.018250,424.408051 426.010193,440.675964 426.014252,457.401886 
	C415.234222,457.859894 404.442078,457.859894 393.328156,457.859894 
	C393.328156,441.282959 393.328156,425.035767 393.328156,408.025452 
	C403.912476,408.025452 414.501831,408.025452 425.558746,408.082794 
z"/>
<path fill="#555A66" opacity="1.000000" stroke="none" 
	d="
M48.559006,408.082977 
	C49.018471,424.408142 49.010376,440.675873 49.014446,457.401550 
	C38.234531,457.859558 27.442453,457.859558 16.328184,457.859558 
	C16.328184,441.283173 16.328184,425.035828 16.328184,408.025513 
	C26.912590,408.025513 37.502018,408.025513 48.559006,408.082977 
z"/>
<path fill="#555A66" opacity="1.000000" stroke="none" 
	d="
M51.566227,303.122406 
	C47.577736,310.672913 49.272633,318.934631 49.014267,327.403290 
	C38.244846,327.861053 27.462965,327.861053 16.166914,327.861053 
	C16.166914,322.809998 15.714725,317.996185 16.280531,313.305145 
	C16.999790,307.341827 22.322916,303.156372 28.634007,303.045593 
	C36.120399,302.914215 43.611248,303.036560 51.566227,303.122406 
z"/>
<path fill="#555A66" opacity="1.000000" stroke="none" 
	d="
M425.559113,473.081543 
	C426.014618,477.233521 425.618011,481.374054 426.099792,485.409698 
	C426.571411,489.360107 427.938019,493.203644 428.971985,497.448181 
	C421.048218,497.859558 413.060028,498.100494 405.081635,497.916077 
	C398.714081,497.768860 393.691589,492.879944 393.096222,486.654694 
	C392.859528,484.179474 393.015015,481.666229 393.002167,479.170258 
	C392.992859,477.363831 393.000366,475.557343 393.000366,473.024139 
	C403.934052,473.024139 414.512817,473.024139 425.559113,473.081543 
z"/>
<path fill="#555A66" opacity="1.000000" stroke="none" 
	d="
M48.559113,473.081543 
	C49.014603,477.233521 48.617966,481.374023 49.099747,485.409668 
	C49.571346,489.360077 50.937965,493.203644 51.972008,497.448181 
	C44.048306,497.859558 36.060081,498.100464 28.081686,497.916077 
	C21.714138,497.768890 16.586548,492.886353 16.121803,486.653625 
	C15.802739,482.374603 16.060640,478.052551 16.060640,473.024139 
	C26.934008,473.024139 37.512768,473.024139 48.559113,473.081543 
z"/>
<path fill="#555A66" opacity="1.000000" stroke="none" 
	d="
M428.566162,303.122375 
	C424.577118,310.672852 426.273438,318.934723 426.014221,327.403290 
	C415.244812,327.861053 404.462952,327.861053 393.166931,327.861053 
	C393.166931,322.809967 392.714783,317.996155 393.280548,313.305115 
	C393.999756,307.341827 399.322845,303.156372 405.633972,303.045624 
	C413.120361,302.914246 420.611206,303.036560 428.566162,303.122375 
z"/>
<path fill="#C5CAD8" opacity="1.000000" stroke="none" 
	d="
M269.544983,176.045441 
	C269.544952,181.160995 269.544952,185.787125 269.544952,190.711731 
	C261.147980,190.711731 253.098450,190.711731 244.749893,190.711731 
	C244.749893,182.710510 244.749893,174.650681 244.749893,166.284576 
	C252.857681,166.284576 260.908691,166.284576 269.545044,166.284576 
	C269.545044,169.337845 269.545044,172.446930 269.544983,176.045441 
z"/>
<path fill="#040404" opacity="1.000000" stroke="none" 
	d="
M318.885834,398.323730 
	C310.175812,415.854553 297.322510,428.463623 278.929596,434.835449 
	C253.495392,443.646545 224.558914,436.438110 206.979263,416.137939 
	C187.986893,394.206390 184.542282,369.461456 195.780273,342.699524 
	C196.228958,341.631012 196.727356,340.583374 197.295807,339.209442 
	C208.246735,320.689240 223.625778,308.810455 244.706863,304.663879 
	C286.740112,296.396149 326.955841,331.072205 324.194061,373.781250 
	C323.667664,381.921448 320.745300,389.906738 318.885834,398.323730 
M208.345337,351.305420 
	C200.291824,374.134430 205.830856,396.316376 223.280853,411.117371 
	C247.404617,431.579010 286.166260,425.532837 301.544952,398.588837 
	C312.412079,379.748566 312.617462,360.713470 300.823364,342.502014 
	C288.991699,324.232635 271.327911,316.324432 249.825226,319.202728 
	C230.486557,321.791351 216.557205,332.508972 208.345337,351.305420 
z"/>
<path fill="#030303" opacity="1.000000" stroke="none" 
	d="
M225.208801,243.558304 
	C226.985458,234.462708 230.984314,231.034332 239.537445,231.005203 
	C251.200943,230.965485 262.864838,230.959167 274.528259,231.006897 
	C283.766174,231.044708 288.694366,235.915268 288.791412,245.188156 
	C288.885620,254.184814 288.915802,263.184814 288.781555,272.180481 
	C288.648804,281.073639 283.601379,285.950043 274.648712,285.991150 
	C262.818695,286.045471 250.987991,286.053375 239.158096,285.988281 
	C230.319153,285.939636 225.308990,280.937469 225.208206,271.992218 
	C225.103088,262.662537 225.187515,253.330688 225.208801,243.558304 
M256.500610,245.999557 
	C251.112167,245.999557 245.723724,245.999557 240.441803,245.999557 
	C240.441803,254.738281 240.441803,262.645233 240.441803,270.586151 
	C251.679031,270.586151 262.656708,270.586151 273.556183,270.586151 
	C273.556183,262.262573 273.556183,254.355667 273.556183,245.999557 
	C268.040314,245.999557 262.769714,245.999557 256.500610,245.999557 
z"/>
<path fill="#020202" opacity="1.000000" stroke="none" 
	d="
M170.465820,286.093018 
	C161.050507,286.113281 152.091125,286.085876 143.132385,285.995697 
	C133.197754,285.895691 128.060318,279.627167 129.574020,269.717590 
	C130.825577,261.524231 131.969788,253.313126 133.050919,245.095337 
	C134.407257,234.785858 138.651932,231.011490 149.135376,230.996735 
	C153.450943,230.990662 157.766495,230.986877 162.545883,230.906738 
	C167.837006,230.886627 172.664215,230.951477 177.491623,230.994980 
	C186.966080,231.080368 191.832443,235.950150 191.888153,245.537033 
	C191.938492,254.199951 191.941833,262.863678 191.887177,271.526550 
	C191.826981,281.067932 186.926453,285.930328 177.419388,286.001343 
	C175.253693,286.017548 173.087845,286.012787 170.465820,286.093018 
M166.923630,270.979950 
	C170.158661,270.979950 173.393692,270.979950 176.597168,270.979950 
	C176.597168,262.329590 176.597168,254.328110 176.597168,246.163467 
	C171.869720,246.163467 167.441788,246.163467 162.087112,246.025299 
	C157.474609,246.025299 152.862091,246.025299 148.144623,246.025299 
	C146.939804,254.509338 145.805267,262.498535 144.621078,270.837280 
	C152.121109,270.837280 159.066452,270.837280 166.923630,270.979950 
z"/>
<path fill="#020202" opacity="1.000000" stroke="none" 
	d="
M322.099884,261.988983 
	C322.100525,255.996185 322.045013,250.500183 322.114502,245.005798 
	C322.227631,236.062668 327.170685,231.066864 336.020660,231.011810 
	C346.178192,230.948593 356.336609,230.960403 366.494293,231.008743 
	C374.541901,231.047058 379.087830,234.573776 380.413452,242.367889 
	C382.086060,252.201782 383.518799,262.084015 384.744934,271.983765 
	C385.649567,279.287964 380.348663,285.713715 372.981659,285.881744 
	C359.999969,286.177887 347.002930,286.152954 334.019836,285.890320 
	C327.236328,285.753113 322.521179,280.523071 322.154449,273.475067 
	C321.964325,269.821167 322.107361,266.149933 322.099884,261.988983 
M361.295349,246.001221 
	C353.378906,246.001221 345.462494,246.001221 337.417145,246.001221 
	C337.417145,254.584824 337.417145,262.612213 337.417145,270.731445 
	C348.123199,270.731445 358.512482,270.731445 369.405060,270.731445 
	C368.255615,262.885590 367.260712,255.347824 365.901154,247.876404 
	C365.751923,247.056351 363.509216,246.617233 361.295349,246.001221 
z"/>
<path fill="#010101" opacity="1.000000" stroke="none" 
	d="
M117.276001,118.112183 
	C94.938614,100.392136 96.635796,75.112640 106.010414,61.260181 
	C108.929596,56.946632 113.037857,53.437786 116.757080,49.266579 
	C126.105606,42.877277 136.222244,40.878937 147.206512,40.905491 
	C221.705170,41.085621 296.204468,40.974808 370.703583,41.015652 
	C391.895233,41.027267 408.468109,53.936687 413.331970,73.979599 
	C419.461761,99.238861 400.454681,124.619347 374.424622,125.918259 
	C372.761261,126.001259 371.092438,125.997200 369.426178,125.997284 
	C294.427094,126.000877 219.427963,125.967545 144.428940,126.040405 
	C134.647171,126.049911 125.666939,123.847755 117.276001,118.112183 
M158.101288,56.051277 
	C152.602112,56.036762 147.101486,55.934868 141.604034,56.025043 
	C128.175064,56.245331 116.195831,66.716583 114.951950,79.223808 
	C113.420906,94.618515 121.406822,107.225174 135.683151,109.921844 
	C143.251831,111.351501 151.236481,110.579124 159.957581,110.935699 
	C179.784180,110.956413 199.610794,110.991798 219.437393,110.994972 
	C270.088013,111.003090 320.738708,111.041351 371.389221,110.962540 
	C382.900330,110.944626 391.745056,105.775276 396.674377,95.335022 
	C401.376648,85.375732 400.404785,75.447441 393.602234,66.616081 
	C387.966614,59.299667 380.207611,55.987251 370.955231,55.990337 
	C301.643829,56.013462 232.332458,56.001564 163.021072,56.010635 
	C161.691864,56.010807 160.362656,56.133102 158.101288,56.051277 
z"/>
<path fill="#CCD1E0" opacity="1.000000" stroke="none" 
	d="
M208.888428,350.784576 
	C216.557205,332.508972 230.486557,321.791351 249.825226,319.202728 
	C271.327911,316.324432 288.991699,324.232635 300.823364,342.502014 
	C312.617462,360.713470 312.412079,379.748566 300.866547,398.737854 
	C297.764557,398.412567 295.331268,397.982758 292.918945,397.456726 
	C275.346588,393.625183 258.479218,387.838074 243.054459,378.466400 
	C230.440460,370.802521 218.357468,362.379089 208.888428,350.784576 
z"/>
<path fill="#BDC2D1" opacity="1.000000" stroke="none" 
	d="
M208.616882,351.044983 
	C218.357468,362.379089 230.440460,370.802521 243.054459,378.466400 
	C258.479218,387.838074 275.346588,393.625183 292.918945,397.456726 
	C295.331268,397.982758 297.764557,398.412567 300.584076,398.942261 
	C286.166260,425.532837 247.404617,431.579010 223.280853,411.117371 
	C205.830856,396.316376 200.291824,374.134430 208.616882,351.044983 
z"/>
<path fill="#63AEF8" opacity="1.000000" stroke="none" 
	d="
M256.999878,245.999557 
	C262.769714,245.999557 268.040314,245.999557 273.556183,245.999557 
	C273.556183,254.355667 273.556183,262.262573 273.556183,270.586151 
	C262.656708,270.586151 251.679031,270.586151 240.441803,270.586151 
	C240.441803,262.645233 240.441803,254.738281 240.441803,245.999557 
	C245.723724,245.999557 251.112167,245.999557 256.999878,245.999557 
z"/>
<path fill="#FD6B52" opacity="1.000000" stroke="none" 
	d="
M166.011795,270.837280 
	C159.066452,270.837280 152.121109,270.837280 144.621078,270.837280 
	C145.805267,262.498535 146.939804,254.509338 148.144623,246.025299 
	C152.862091,246.025299 157.474609,246.025299 162.545349,246.532654 
	C164.006317,254.972443 165.009064,262.904877 166.011795,270.837280 
z"/>
<path fill="#FC866E" opacity="1.000000" stroke="none" 
	d="
M166.467712,270.908630 
	C165.009064,262.904877 164.006317,254.972443 163.008728,246.601746 
	C167.441788,246.163467 171.869720,246.163467 176.597168,246.163467 
	C176.597168,254.328110 176.597168,262.329590 176.597168,270.979950 
	C173.393692,270.979950 170.158661,270.979950 166.467712,270.908630 
z"/>
<path fill="#06CAA9" opacity="1.000000" stroke="none" 
	d="
M361.766418,246.001343 
	C363.509216,246.617233 365.751923,247.056351 365.901154,247.876404 
	C367.260712,255.347824 368.255615,262.885590 369.405060,270.731445 
	C358.512482,270.731445 348.123199,270.731445 337.417145,270.731445 
	C337.417145,262.612213 337.417145,254.584824 337.417145,246.001221 
	C345.462494,246.001221 353.378906,246.001221 361.766418,246.001343 
z"/>
<path fill="#636978" opacity="1.000000" stroke="none" 
	d="
M159.033447,56.198418 
	C160.362656,56.133102 161.691864,56.010807 163.021072,56.010635 
	C232.332458,56.001564 301.643829,56.013462 370.955231,55.990337 
	C380.207611,55.987251 387.966614,59.299667 393.602234,66.616081 
	C400.404785,75.447441 401.376648,85.375732 396.674377,95.335022 
	C391.745056,105.775276 382.900330,110.944626 371.389221,110.962540 
	C320.738708,111.041351 270.088013,111.003090 219.437393,110.994972 
	C199.610794,110.991798 179.784180,110.956413 159.438919,110.540077 
	C158.357254,109.344498 157.931854,108.383163 157.210907,107.768471 
	C143.644226,96.201416 143.633286,71.059265 156.968735,59.449139 
	C157.896851,58.641098 158.356140,57.294548 159.033447,56.198418 
M249.509750,81.021614 
	C244.927505,77.223846 240.614197,76.910339 237.635483,80.158585 
	C234.545425,83.528221 235.344574,88.353828 239.654648,92.351341 
	C249.799103,101.760139 266.143890,101.189552 275.612091,91.096085 
	C278.869446,87.623596 279.099609,82.913742 276.156464,79.955620 
	C273.336548,77.121361 269.025879,77.217682 265.370697,80.196632 
	C259.523773,84.961815 256.582520,85.219086 249.509750,81.021614 
M316.930969,73.291656 
	C315.358276,69.454704 312.393829,66.874641 308.460297,68.309654 
	C305.969635,69.218277 303.197174,72.094505 302.529388,74.612846 
	C301.545502,78.323044 301.988251,82.540047 302.444519,86.469048 
	C302.944611,90.775833 306.476166,93.460190 310.451416,92.944496 
	C314.621674,92.403519 316.998474,89.873894 317.113800,85.605392 
	C317.216858,81.790855 317.085999,77.969986 316.930969,73.291656 
M211.356552,87.428902 
	C211.410828,82.973686 211.898926,78.468582 211.393921,74.077690 
	C210.915970,69.921921 207.840149,67.675110 203.596512,68.066475 
	C199.408661,68.452705 197.044006,71.036255 196.878128,75.316170 
	C196.762421,78.302017 196.945587,81.300293 196.806076,84.284172 
	C196.610916,88.458687 198.237183,91.625694 202.259064,92.714569 
	C206.239410,93.792191 209.416397,92.185143 211.356552,87.428902 
z"/>
<path fill="#555A65" opacity="1.000000" stroke="none" 
	d="
M158.567368,56.124847 
	C158.356140,57.294548 157.896851,58.641098 156.968735,59.449139 
	C143.633286,71.059265 143.644226,96.201416 157.210907,107.768471 
	C157.931854,108.383163 158.357254,109.344498 158.976807,110.472633 
	C151.236481,110.579124 143.251831,111.351501 135.683151,109.921844 
	C121.406822,107.225174 113.420906,94.618515 114.951950,79.223808 
	C116.195831,66.716583 128.175064,56.245331 141.604034,56.025043 
	C147.101486,55.934868 152.602112,56.036762 158.567368,56.124847 
z"/>
<path fill="#010202" opacity="1.000000" stroke="none" 
	d="
M249.797974,81.277557 
	C256.582520,85.219086 259.523773,84.961815 265.370697,80.196632 
	C269.025879,77.217682 273.336548,77.121361 276.156464,79.955620 
	C279.099609,82.913742 278.869446,87.623596 275.612091,91.096085 
	C266.143890,101.189552 249.799103,101.760139 239.654648,92.351341 
	C235.344574,88.353828 234.545425,83.528221 237.635483,80.158585 
	C240.614197,76.910339 244.927505,77.223846 249.797974,81.277557 
z"/>
<path fill="#030303" opacity="1.000000" stroke="none" 
	d="
M316.994659,73.721786 
	C317.085999,77.969986 317.216858,81.790855 317.113800,85.605392 
	C316.998474,89.873894 314.621674,92.403519 310.451416,92.944496 
	C306.476166,93.460190 302.944611,90.775833 302.444519,86.469048 
	C301.988251,82.540047 301.545502,78.323044 302.529388,74.612846 
	C303.197174,72.094505 305.969635,69.218277 308.460297,68.309654 
	C312.393829,66.874641 315.358276,69.454704 316.994659,73.721786 
z"/>
<path fill="#030303" opacity="1.000000" stroke="none" 
	d="
M211.233917,87.820099 
	C209.416397,92.185143 206.239410,93.792191 202.259064,92.714569 
	C198.237183,91.625694 196.610916,88.458687 196.806076,84.284172 
	C196.945587,81.300293 196.762421,78.302017 196.878128,75.316170 
	C197.044006,71.036255 199.408661,68.452705 203.596512,68.066475 
	C207.840149,67.675110 210.915970,69.921921 211.393921,74.077690 
	C211.898926,78.468582 211.410828,82.973686 211.233917,87.820099 
z"/>
</svg>